<svg width="703" height="65" viewBox="0 0 703 65" fill="none" xmlns="http://www.w3.org/2000/svg">
<path d="M5.64 40.912L6.152 33.744L27.656 16.4H36.744L5.64 40.912ZM0.456 50V2.64H6.536V50H0.456ZM28.616 50L12.488 32.464L16.904 28.176L37.064 50H28.616ZM69.2105 50.64C65.0718 50.64 61.3812 49.9147 58.1385 48.464C54.8958 46.9707 52.3572 44.944 50.5225 42.384C48.7305 39.7813 47.8345 36.8373 47.8345 33.552C47.8345 30.7787 48.3678 28.304 49.4345 26.128C50.5012 23.9093 51.9945 22.032 53.9145 20.496C55.8345 18.96 58.0532 17.7653 60.5705 16.912C63.1305 16.0587 65.8185 15.632 68.6345 15.632C71.2798 15.632 73.7545 16.0373 76.0585 16.848C78.3625 17.6587 80.3892 18.7893 82.1385 20.24C83.8878 21.6907 85.2318 23.4187 86.1705 25.424C87.1518 27.3867 87.6212 29.5627 87.5785 31.952L87.5145 35.216H53.5945L52.1225 29.968H81.8185L80.8585 30.608V29.072C80.6452 27.6213 79.9412 26.3413 78.7465 25.232C77.5518 24.1227 76.0585 23.2693 74.2665 22.672C72.5172 22.032 70.6398 21.712 68.6345 21.712C65.9038 21.712 63.4505 22.096 61.2745 22.864C59.1412 23.632 57.4558 24.848 56.2185 26.512C54.9812 28.176 54.3625 30.3733 54.3625 33.104C54.3625 35.408 55.0238 37.4347 56.3465 39.184C57.7118 40.8907 59.5892 42.2133 61.9785 43.152C64.4105 44.0907 67.1838 44.56 70.2985 44.56C73.2852 44.56 75.7812 44.1547 77.7865 43.344C79.8345 42.5333 81.5838 41.6373 83.0345 40.656L86.0425 45.52C84.8478 46.4587 83.3332 47.312 81.4985 48.08C79.7065 48.848 77.7438 49.4667 75.6105 49.936C73.5198 50.4053 71.3865 50.64 69.2105 50.64ZM106.394 50V16.4H113.05V28.176L111.45 27.152C112.09 25.0613 113.135 23.1413 114.586 21.392C116.036 19.6427 117.722 18.256 119.642 17.232C121.562 16.208 123.546 15.696 125.594 15.696C126.916 15.696 128.196 15.8453 129.434 16.144C130.714 16.4 131.716 16.7627 132.442 17.232L130.714 24.144C129.903 23.6747 128.9 23.312 127.706 23.056C126.554 22.8 125.466 22.672 124.442 22.672C122.735 22.672 121.178 22.9707 119.77 23.568C118.362 24.1227 117.146 24.8907 116.122 25.872C115.14 26.8533 114.372 27.9413 113.818 29.136C113.306 30.3307 113.05 31.568 113.05 32.848V50H106.394ZM161.52 50.64C157.808 50.64 154.544 49.8933 151.728 48.4C148.954 46.864 146.778 44.7733 145.2 42.128C143.664 39.4827 142.896 36.496 142.896 33.168C142.896 29.7547 143.706 26.7467 145.328 24.144C146.992 21.4987 149.253 19.4293 152.112 17.936C154.97 16.4427 158.256 15.696 161.968 15.696C164.229 15.696 166.32 15.9733 168.24 16.528C170.202 17.0827 171.888 17.8293 173.296 18.768C174.746 19.7067 175.877 20.7307 176.688 21.84C177.541 22.9493 177.989 24.0587 178.032 25.168L176.24 25.104V16.4H182.896V50H176.24V41.104L177.584 41.296C177.541 42.3627 177.072 43.4507 176.176 44.56C175.28 45.6267 174.085 46.6293 172.592 47.568C171.098 48.464 169.392 49.2107 167.472 49.808C165.594 50.3627 163.61 50.64 161.52 50.64ZM163.056 44.56C165.701 44.56 168.026 44.0693 170.032 43.088C172.08 42.064 173.658 40.6987 174.768 38.992C175.92 37.2427 176.496 35.3013 176.496 33.168C176.496 30.992 175.92 29.0507 174.768 27.344C173.658 25.6373 172.08 24.2933 170.032 23.312C168.026 22.3307 165.701 21.84 163.056 21.84C160.453 21.84 158.128 22.3307 156.08 23.312C154.074 24.2933 152.496 25.6373 151.344 27.344C150.192 29.0507 149.616 30.992 149.616 33.168C149.616 35.3013 150.192 37.2427 151.344 38.992C152.496 40.6987 154.074 42.064 156.08 43.088C158.128 44.0693 160.453 44.56 163.056 44.56ZM209.375 50V6.416H215.967V50H209.375ZM199.647 22.8V16.4H227.487V22.8H199.647ZM246.525 50V16.4H253.117V50H246.525ZM249.725 8.528C248.317 8.528 247.229 8.16533 246.461 7.44C245.693 6.71466 245.309 5.69066 245.309 4.368C245.309 3.13066 245.693 2.128 246.461 1.36C247.271 0.591997 248.359 0.207996 249.725 0.207996C251.133 0.207996 252.221 0.570663 252.989 1.296C253.757 2.02133 254.141 3.04533 254.141 4.368C254.141 5.60533 253.735 6.608 252.925 7.376C252.157 8.144 251.09 8.528 249.725 8.528ZM276.019 50V16.4H282.611V25.168L280.499 25.488C281.352 23.8667 282.504 22.3307 283.955 20.88C285.405 19.3867 287.133 18.1493 289.139 17.168C291.187 16.1867 293.448 15.696 295.923 15.696C299.165 15.696 301.875 16.3147 304.051 17.552C306.227 18.7467 307.869 20.432 308.979 22.608C310.088 24.7413 310.643 27.1947 310.643 29.968V50H304.051V30.864C304.051 28.9867 303.603 27.3653 302.707 26C301.853 24.6347 300.68 23.5893 299.187 22.864C297.736 22.1387 296.072 21.776 294.195 21.776C292.488 21.776 290.931 22.0747 289.523 22.672C288.115 23.2693 286.877 24.0587 285.811 25.04C284.787 25.9787 283.997 27.024 283.443 28.176C282.888 29.2853 282.611 30.3947 282.611 31.504V50H279.347C278.365 50 277.597 50 277.043 50C276.488 50 276.147 50 276.019 50ZM336.656 50.704C334.651 50.704 333.136 50.2773 332.112 49.424C331.131 48.5707 330.64 47.3973 330.64 45.904C330.64 44.6667 331.131 43.5573 332.112 42.576C333.136 41.5947 334.651 41.104 336.656 41.104C338.704 41.104 340.219 41.5307 341.2 42.384C342.181 43.2373 342.672 44.4107 342.672 45.904C342.672 47.1413 342.16 48.2507 341.136 49.232C340.155 50.2133 338.661 50.704 336.656 50.704ZM382.737 50.64C380.731 50.64 378.811 50.3627 376.977 49.808C375.142 49.2533 373.499 48.5493 372.049 47.696C370.641 46.8 369.467 45.8613 368.529 44.88C367.59 43.856 366.993 42.9173 366.737 42.064L369.361 41.616V49.808H362.769V2.64H369.361V24.08L367.377 23.952C367.633 23.056 368.209 22.1387 369.105 21.2C370.001 20.2613 371.153 19.3867 372.561 18.576C373.969 17.7227 375.547 17.04 377.297 16.528C379.089 15.9733 380.987 15.696 382.993 15.696C386.534 15.696 389.713 16.4427 392.529 17.936C395.387 19.4293 397.649 21.4773 399.313 24.08C401.019 26.6827 401.873 29.6907 401.873 33.104C401.873 36.4747 401.041 39.4827 399.377 42.128C397.755 44.7733 395.494 46.864 392.593 48.4C389.734 49.8933 386.449 50.64 382.737 50.64ZM382.097 44.56C384.699 44.56 387.003 44.0693 389.009 43.088C391.014 42.064 392.593 40.6987 393.745 38.992C394.897 37.2427 395.473 35.28 395.473 33.104C395.473 30.928 394.897 28.9867 393.745 27.28C392.593 25.5733 391.014 24.2293 389.009 23.248C387.003 22.2667 384.699 21.776 382.097 21.776C379.451 21.776 377.105 22.2667 375.057 23.248C373.051 24.2293 371.451 25.5733 370.257 27.28C369.105 28.9867 368.529 30.928 368.529 33.104C368.529 35.28 369.105 37.2427 370.257 38.992C371.451 40.6987 373.051 42.064 375.057 43.088C377.105 44.0693 379.451 44.56 382.097 44.56ZM424.081 64.72L432.529 49.104V54.16L412.497 16.4H420.177L430.289 36.56C431.483 38.736 432.507 40.7413 433.361 42.576C434.214 44.4107 434.79 46.0533 435.089 47.504L434.001 47.568C434.555 46.16 435.238 44.5173 436.049 42.64C436.859 40.7627 437.819 38.6933 438.929 36.432L448.273 16.4H456.017L438.481 50.256L431.185 64.72H424.081ZM473.281 50.704C471.276 50.704 469.761 50.2773 468.737 49.424C467.756 48.5707 467.265 47.3973 467.265 45.904C467.265 44.6667 467.756 43.5573 468.737 42.576C469.761 41.5947 471.276 41.104 473.281 41.104C475.329 41.104 476.844 41.5307 477.825 42.384C478.806 43.2373 479.297 44.4107 479.297 45.904C479.297 47.1413 478.785 48.2507 477.761 49.232C476.78 50.2133 475.286 50.704 473.281 50.704ZM504.578 40.912L505.09 33.744L526.594 16.4H535.682L504.578 40.912ZM499.394 50V2.64H505.474V50H499.394ZM527.554 50L511.426 32.464L515.842 28.176L536.002 50H527.554ZM565.332 50.64C561.62 50.64 558.356 49.8933 555.54 48.4C552.767 46.864 550.591 44.7733 549.012 42.128C547.476 39.4827 546.708 36.496 546.708 33.168C546.708 29.7547 547.519 26.7467 549.14 24.144C550.804 21.4987 553.065 19.4293 555.924 17.936C558.783 16.4427 562.068 15.696 565.78 15.696C568.041 15.696 570.132 15.9733 572.052 16.528C574.015 17.0827 575.7 17.8293 577.108 18.768C578.559 19.7067 579.689 20.7307 580.5 21.84C581.353 22.9493 581.801 24.0587 581.844 25.168L580.052 25.104V16.4H586.708V50H580.052V41.104L581.396 41.296C581.353 42.3627 580.884 43.4507 579.988 44.56C579.092 45.6267 577.897 46.6293 576.404 47.568C574.911 48.464 573.204 49.2107 571.284 49.808C569.407 50.3627 567.423 50.64 565.332 50.64ZM566.868 44.56C569.513 44.56 571.839 44.0693 573.844 43.088C575.892 42.064 577.471 40.6987 578.58 38.992C579.732 37.2427 580.308 35.3013 580.308 33.168C580.308 30.992 579.732 29.0507 578.58 27.344C577.471 25.6373 575.892 24.2933 573.844 23.312C571.839 22.3307 569.513 21.84 566.868 21.84C564.265 21.84 561.94 22.3307 559.892 23.312C557.887 24.2933 556.308 25.6373 555.156 27.344C554.004 29.0507 553.428 30.992 553.428 33.168C553.428 35.3013 554.004 37.2427 555.156 38.992C556.308 40.6987 557.887 42.064 559.892 43.088C561.94 44.0693 564.265 44.56 566.868 44.56ZM608.644 50V16.4H615.3V28.176L613.7 27.152C614.34 25.0613 615.385 23.1413 616.836 21.392C618.286 19.6427 619.972 18.256 621.892 17.232C623.812 16.208 625.796 15.696 627.844 15.696C629.166 15.696 630.446 15.8453 631.684 16.144C632.964 16.4 633.966 16.7627 634.692 17.232L632.964 24.144C632.153 23.6747 631.15 23.312 629.956 23.056C628.804 22.8 627.716 22.672 626.692 22.672C624.985 22.672 623.428 22.9707 622.02 23.568C620.612 24.1227 619.396 24.8907 618.372 25.872C617.39 26.8533 616.622 27.9413 616.068 29.136C615.556 30.3307 615.3 31.568 615.3 32.848V50H608.644ZM651.831 50V16.4H658.487V28.176L656.887 27.152C657.527 25.0613 658.572 23.1413 660.023 21.392C661.474 19.6427 663.159 18.256 665.079 17.232C666.999 16.208 668.983 15.696 671.031 15.696C672.354 15.696 673.634 15.8453 674.871 16.144C676.151 16.4 677.154 16.7627 677.879 17.232L676.151 24.144C675.34 23.6747 674.338 23.312 673.143 23.056C671.991 22.8 670.903 22.672 669.879 22.672C668.172 22.672 666.615 22.9707 665.207 23.568C663.799 24.1227 662.583 24.8907 661.559 25.872C660.578 26.8533 659.81 27.9413 659.255 29.136C658.743 30.3307 658.487 31.568 658.487 32.848V50H651.831ZM695.275 50V16.4H701.867V50H695.275ZM698.475 8.528C697.067 8.528 695.979 8.16533 695.211 7.44C694.443 6.71466 694.059 5.69066 694.059 4.368C694.059 3.13066 694.443 2.128 695.211 1.36C696.021 0.591997 697.109 0.207996 698.475 0.207996C699.883 0.207996 700.971 0.570663 701.739 1.296C702.507 2.02133 702.891 3.04533 702.891 4.368C702.891 5.60533 702.485 6.608 701.675 7.376C700.907 8.144 699.84 8.528 698.475 8.528Z" fill="white"/>
</svg>
