<svg width="319" height="36" viewBox="0 0 319 36" fill="none" xmlns="http://www.w3.org/2000/svg">
<path d="M20.56 32.36C22.736 32.36 24.816 31.992 26.8 31.256C28.816 30.488 30.736 29.256 32.56 27.56L34.96 30.44C33.136 32.136 30.928 33.48 28.336 34.472C25.744 35.464 22.992 35.96 20.08 35.96C17.072 35.96 14.352 35.576 11.92 34.808C9.52 34.04 7.456 32.904 5.728 31.4C4.032 29.896 2.72 28.04 1.792 25.832C0.864 23.624 0.4 21.08 0.4 18.2C0.4 15.32 0.848 12.776 1.744 10.568C2.672 8.36 3.968 6.504 5.632 5C7.328 3.496 9.36 2.36 11.728 1.592C14.096 0.823998 16.72 0.439999 19.6 0.439999C22.512 0.439999 25.264 0.935999 27.856 1.928C30.448 2.92 32.656 4.264 34.48 5.96L32.08 8.84C30.256 7.144 28.336 5.928 26.32 5.192C24.336 4.424 22.256 4.04 20.08 4.04C18.352 4.04 16.736 4.328 15.232 4.904C13.728 5.448 12.432 6.296 11.344 7.448C10.256 8.6 9.392 10.072 8.752 11.864C8.144 13.624 7.84 15.736 7.84 18.2C7.84 20.664 8.144 22.792 8.752 24.584C9.392 26.344 10.272 27.8 11.392 28.952C12.544 30.104 13.888 30.968 15.424 31.544C16.992 32.088 18.704 32.36 20.56 32.36ZM56.5619 1.4C58.9619 1.4 61.1059 1.672 62.9939 2.216C64.9139 2.728 66.5299 3.496 67.8419 4.52C69.1539 5.512 70.1619 6.744 70.8659 8.216C71.5699 9.656 71.9219 11.304 71.9219 13.16C71.9219 15.72 71.2819 17.88 70.0019 19.64C68.7219 21.4 66.8819 22.744 64.4819 23.672L72.4019 35H64.4819L57.4259 24.92H56.5619H46.2419V35H39.2819V1.4H56.5619ZM46.2419 5V21.32H56.5619C59.0899 21.32 61.0419 20.664 62.4179 19.352C63.7939 18.008 64.4819 15.944 64.4819 13.16C64.4819 10.376 63.7939 8.328 62.4179 7.016C61.0419 5.672 59.0899 5 56.5619 5H46.2419ZM86.5525 23.24H101.432L94.2325 5.48H93.7525L86.5525 23.24ZM99.5125 1.4L113.193 35H106.281L103.113 26.84H84.8725L81.7045 35H74.7925L88.4725 1.4H99.5125ZM124.008 5V16.52H141.528V20.12H124.008V35H117.048V1.4H147.288V5H124.008ZM181.594 5H168.634V35H161.674V5H148.714V1.4H181.594V5ZM186.897 31.88C186.897 32.84 186.561 33.688 185.889 34.424C185.249 35.128 184.385 35.48 183.297 35.48C182.209 35.48 181.329 35.128 180.657 34.424C180.017 33.688 179.697 32.84 179.697 31.88C179.697 30.92 180.017 30.088 180.657 29.384C181.329 28.648 182.209 28.28 183.297 28.28C184.353 28.28 185.217 28.648 185.889 29.384C186.561 30.088 186.897 30.92 186.897 31.88ZM219.057 35H212.337V19.88C212.337 17.576 211.761 15.928 210.609 14.936C209.457 13.912 207.793 13.4 205.617 13.4H199.377V35H192.657V10.04H205.617C210.193 10.04 213.569 10.872 215.745 12.536C217.953 14.168 219.057 16.616 219.057 19.88V35ZM238.956 32.84C239.98 32.84 240.94 32.648 241.836 32.264C242.732 31.88 243.516 31.288 244.188 30.488C244.86 29.656 245.388 28.584 245.772 27.272C246.188 25.96 246.396 24.376 246.396 22.52C246.396 20.664 246.188 19.08 245.772 17.768C245.388 16.456 244.86 15.4 244.188 14.6C243.516 13.768 242.732 13.16 241.836 12.776C240.94 12.392 239.98 12.2 238.956 12.2C237.932 12.2 236.972 12.392 236.076 12.776C235.18 13.16 234.396 13.768 233.724 14.6C233.052 15.4 232.508 16.456 232.092 17.768C231.708 19.08 231.516 20.664 231.516 22.52C231.516 24.376 231.708 25.96 232.092 27.272C232.508 28.584 233.052 29.656 233.724 30.488C234.396 31.288 235.18 31.88 236.076 32.264C236.972 32.648 237.932 32.84 238.956 32.84ZM238.956 9.08C241.1 9.08 243.068 9.384 244.86 9.992C246.684 10.568 248.236 11.432 249.516 12.584C250.796 13.704 251.788 15.112 252.492 16.808C253.228 18.472 253.596 20.376 253.596 22.52C253.596 24.696 253.228 26.616 252.492 28.28C251.788 29.944 250.796 31.352 249.516 32.504C248.236 33.624 246.684 34.472 244.86 35.048C243.068 35.656 241.1 35.96 238.956 35.96C236.78 35.96 234.796 35.656 233.004 35.048C231.212 34.472 229.676 33.624 228.396 32.504C227.116 31.352 226.108 29.944 225.372 28.28C224.668 26.616 224.316 24.696 224.316 22.52C224.316 20.376 224.668 18.472 225.372 16.808C226.108 15.112 227.116 13.704 228.396 12.584C229.676 11.432 231.212 10.568 233.004 9.992C234.796 9.384 236.78 9.08 238.956 9.08ZM278.566 31.64V13.4H272.566C271.478 13.4 270.47 13.576 269.542 13.928C268.646 14.248 267.862 14.776 267.19 15.512C266.55 16.248 266.038 17.192 265.654 18.344C265.302 19.496 265.126 20.888 265.126 22.52C265.126 24.152 265.302 25.544 265.654 26.696C266.038 27.848 266.55 28.792 267.19 29.528C267.862 30.264 268.646 30.808 269.542 31.16C270.47 31.48 271.478 31.64 272.566 31.64H278.566ZM272.566 35C270.358 35 268.342 34.712 266.518 34.136C264.726 33.56 263.19 32.728 261.91 31.64C260.63 30.552 259.638 29.24 258.934 27.704C258.262 26.168 257.926 24.44 257.926 22.52C257.926 20.6 258.262 18.872 258.934 17.336C259.638 15.8 260.63 14.488 261.91 13.4C263.19 12.312 264.726 11.48 266.518 10.904C268.342 10.328 270.358 10.04 272.566 10.04H278.566V1.4H285.286V35H272.566ZM306.385 32.6C307.953 32.6 309.409 32.328 310.753 31.784C312.129 31.24 313.473 30.472 314.785 29.48L316.705 32.36C316.097 32.904 315.377 33.4 314.545 33.848C313.745 34.296 312.865 34.68 311.905 35C310.977 35.288 310.001 35.512 308.977 35.672C307.953 35.864 306.929 35.96 305.905 35.96C303.633 35.96 301.553 35.656 299.665 35.048C297.809 34.472 296.225 33.624 294.913 32.504C293.601 31.352 292.577 29.944 291.841 28.28C291.137 26.616 290.785 24.696 290.785 22.52C290.785 20.376 291.121 18.472 291.793 16.808C292.497 15.112 293.457 13.704 294.673 12.584C295.921 11.432 297.393 10.568 299.089 9.992C300.785 9.384 302.657 9.08 304.705 9.08C306.625 9.08 308.433 9.368 310.129 9.944C311.825 10.52 313.297 11.368 314.545 12.488C315.793 13.576 316.785 14.904 317.521 16.472C318.257 18.04 318.625 19.816 318.625 21.8V25.16H298.129C298.513 27.816 299.425 29.72 300.865 30.872C302.337 32.024 304.177 32.6 306.385 32.6ZM304.705 12.2C303.777 12.2 302.913 12.376 302.113 12.728C301.313 13.08 300.609 13.64 300.001 14.408C299.425 15.176 298.945 16.168 298.561 17.384C298.209 18.6 298.017 20.072 297.985 21.8H311.425C311.425 20.136 311.233 18.696 310.849 17.48C310.465 16.264 309.953 15.272 309.313 14.504C308.705 13.704 307.985 13.128 307.153 12.776C306.353 12.392 305.537 12.2 304.705 12.2Z" fill="white"/>
</svg>
